<?xml version="1.0" encoding="utf-8"?>
<svg xmlns="http://www.w3.org/2000/svg" viewBox="406.207 206.954 357.832 91.69" width="2070.8px" height="530.613px" preserveAspectRatio="none"><g id="object-2"><path d="M 452.051 298.644 C 451.597 298.644 451.142 298.636 450.689 298.623 L 460.058 272.873 L 472.953 272.873 C 475.216 272.873 477.7 271.134 478.475 269.009 L 488.639 241.088 C 490.302 236.517 487.683 232.777 482.819 232.777 L 464.931 232.777 L 449.923 274.019 L 449.918 274.019 L 441.409 297.4 C 421.222 292.601 406.207 274.454 406.207 252.8 C 406.207 231.769 420.368 214.047 439.675 208.646 L 430.895 232.777 L 430.893 232.777 L 416.298 272.873 L 426.013 272.875 L 438.426 238.802 L 445.728 238.802 L 433.315 272.875 L 443.028 272.876 L 454.595 241.088 C 456.258 236.517 453.64 232.777 448.781 232.777 L 440.613 232.777 L 449.991 207.002 C 450.675 206.972 451.361 206.954 452.051 206.954 C 477.371 206.954 497.897 227.479 497.897 252.8 C 497.897 278.118 477.371 298.644 452.051 298.644 Z M 479.791 238.778 L 472.49 238.778 L 462.267 266.828 L 469.568 266.828 L 479.791 238.778 Z" style="fill: rgb(255, 255, 255);" id="object-0"/><path d="M 542.96 261.345 L 542.591 261.345 L 527.138 226.031 L 515.003 226.031 L 515.003 283.008 L 525.579 283.008 L 525.579 246.107 L 526.07 246.107 L 538.984 275.409 L 546.401 275.409 L 559.274 246.107 L 559.767 246.107 L 559.767 283.008 L 570.465 283.008 L 570.465 226.031 L 558.413 226.031 L 542.96 261.345 Z M 694.073 226.031 L 705.96 226.031 L 705.96 283.009 L 694.073 283.009 L 694.073 226.031 Z M 741.862 235.088 C 748.912 235.088 752.64 240.515 752.64 246.359 L 764.039 246.359 L 764.039 245.148 C 764.039 234.129 755.635 224.947 741.779 224.947 C 726.939 224.947 718.086 234.714 718.086 251.37 L 718.086 257.799 C 718.086 274.45 726.857 284.096 741.737 284.096 C 755.962 284.096 764.039 274.784 764.039 264.434 L 764.039 263.182 L 752.641 263.182 C 752.641 269.07 748.994 273.953 741.946 273.953 C 734.729 273.953 730.137 268.818 730.137 257.838 L 730.137 251.414 C 730.137 240.472 734.771 235.088 741.862 235.088 Z M 615.929 262.011 C 615.929 269.652 611.461 273.866 604.903 273.866 C 598.303 273.866 593.836 269.692 593.836 262.011 L 593.836 226.031 L 582.029 226.031 L 582.029 263.681 C 582.029 275.831 590.636 284.095 604.901 284.095 C 619.126 284.095 627.774 275.831 627.774 263.681 L 627.774 226.031 L 615.929 226.031 L 615.929 262.011 Z M 667.103 249.824 L 658.619 247.906 C 653.619 246.859 650.995 244.648 650.995 241.349 C 650.995 236.968 654.56 234.212 660.302 234.212 C 666.778 234.212 670.016 237.927 670.302 241.935 L 681.37 241.935 C 681.247 231.874 672.845 224.862 660.341 224.862 C 648.496 224.862 639.149 231.083 639.149 242.269 C 639.149 251.953 645.709 256.458 653.579 258.174 L 661.981 260.134 C 667.638 261.428 670.507 263.308 670.507 267.187 C 670.507 271.615 666.981 274.621 660.383 274.621 C 653.291 274.621 649.56 270.863 649.234 266.646 L 637.837 266.646 C 638.004 274.703 643.332 284.095 659.811 284.095 C 673.665 284.095 682.234 277.208 682.234 266.017 C 682.23 255.665 675.302 251.616 667.103 249.824 Z" style="fill:#fff" id="object-1"/></g></svg>